<svg xmlns="http://www.w3.org/2000/svg" viewBox="-41.2114 -50.6609 32.22 48.66">
  <path 
    d="M -23.64 -50.64 c 5.65 0.62 10.64 4.14 13.09 9.25 c 0.71 1.47 1.12 2.74 1.38 4.24 c 0.29 1.69 0.22 4.5 -0.15 6.05 c -0.48 2.01 -1.25 3.82 -2.32 5.45 c -0.75 1.15 -0.98 1.41 -2.85 3.31 c -1.89 1.92 -2.55 2.83 -2.97 4.09 c -0.24 0.73 -0.27 0.99 -0.33 3.15 c -0.07 2.06 -0.1 2.42 -0.29 2.92 c -0.35 0.9 -1.09 1.47 -2.19 1.67 c -0.26 0.05 -2.56 0.1 -5.12 0.12 c -5.35 0.03 -5.26 0.04 -6.05 -0.76 c -0.74 -0.74 -0.86 -1.2 -0.96 -3.8 c -0.08 -2.14 -0.19 -2.91 -0.61 -4.03 c -0.34 -0.91 -1.04 -1.91 -1.92 -2.72 c -0.44 -0.41 -1.26 -1.2 -1.81 -1.75 c -3.59 -3.57 -5.2 -9.05 -4.16 -14.12 c 1.54 -7.49 7.92 -12.9 15.41 -13.08 c 0.8 -0.02 1.63 -0.01 1.85 0.01 z m -4 2.49 c -1.93 0.4 -4.01 1.33 -5.56 2.5 c -1.63 1.22 -3.32 3.21 -4.18 4.92 c -0.99 1.98 -1.41 3.59 -1.48 5.74 c -0.09 2.45 0.31 4.37 1.32 6.45 c 0.74 1.52 1.47 2.46 3.35 4.31 c 1.8 1.76 2.35 2.43 2.9 3.53 c 0.83 1.65 1.2 3.43 1.2 5.8 c 0 1.61 0.07 1.86 0.57 2.11 c 0.29 0.14 0.83 0.16 4.51 0.14 c 3.03 -0.02 4.25 -0.06 4.41 -0.15 c 0.41 -0.22 0.5 -0.64 0.49 -2.41 c -0.01 -1.84 0.2 -3.13 0.72 -4.46 c 0.57 -1.47 1 -2.06 2.9 -3.93 c 0.97 -0.96 1.98 -2.01 2.23 -2.33 c 1.28 -1.59 2.19 -3.49 2.69 -5.61 c 0.3 -1.26 0.32 -4.28 0.04 -5.56 c -1.29 -5.9 -5.82 -10.25 -11.61 -11.15 c -1.14 -0.18 -3.41 -0.13 -4.5 0.1 z M -30 -8 H -20 Q -19 -8 -19 -7 Q -19 -6 -20 -6 H -30 Q -31 -6 -31 -7 Q -31 -8 -30 -8 Z M -29 -4 H -21 Q -20 -4 -20 -3 Q -20 -2 -21 -2 H -29 Q -30 -2 -30 -3 Q -30 -4 -29 -4 Z" 
  />
</svg>