<svg xmlns="http://www.w3.org/2000/svg" viewBox="1 1 17 17">
  <path stroke-width="1" stroke-linecap="round" d="M 1 2 Q 1 1 2 1 H 4 Q 5 1 5 2 V 4 Q 5 5 4 5 H 2 Q 1 5 1 4 Z M 13 2 Q 13 1 14 1 H 16 Q 17 1 17 2 V 4 Q 17 5 16 5 H 14 Q 13 5 13 4 Z M 1 14 Q 1 13 2 13 H 4 Q 5 13 5 14 V 16 Q 5 17 4 17 H 2 Q 1 17 1 16 Z M 13 14 Q 13 13 14 13 H 16 Q 17 13 17 14 V 16 Q 17 17 16 17 H 14 Q 13 17 13 16 Z M 1 8 Q 1 7 2 7 H 4 Q 5 7 5 8 V 10 Q 5 11 4 11 H 2 Q 1 11 1 10 Z M 7 2 Q 7 1 8 1 H 10 Q 11 1 11 2 V 4 Q 11 5 10 5 H 8 Q 7 5 7 4 Z M 7 8 Q 7 7 8 7 H 10 Q 11 7 11 8 V 10 Q 11 11 10 11 H 8 Q 7 11 7 10 Z M 13 8 Q 13 7 14 7 H 16 Q 17 7 17 8 V 10 Q 17 11 16 11 H 14 Q 13 11 13 10 Z M 7 14 Q 7 13 8 13 H 10 Q 11 13 11 14 V 16 Q 11 17 10 17 H 8 Q 7 17 7 16 Z"/>
</svg>