<svg xmlns="http://www.w3.org/2000/svg" viewBox="1 1 17 17">
  <path stroke-width="1" stroke-linecap="round" d="M 1 2 Q 1 1 2 1 H 5 Q 6 1 6 2 V 5 Q 6 6 5 6 H 2 Q 1 6 1 5 Z M 13 2 Q 13 1 14 1 H 17 Q 18 1 18 2 V 5 Q 18 6 17 6 H 14 Q 13 6 13 5 Z M 1 14 Q 1 13 2 13 H 5 Q 6 13 6 14 V 17 Q 6 18 5 18 H 2 Q 1 18 1 17 Z M 13 14 Q 13 13 14 13 H 17 Q 18 13 18 14 V 17 Q 18 18 17 18 H 14 Q 13 18 13 17 Z M 1 8 Q 1 7 2 7 H 5 Q 6 7 6 8 V 11 Q 6 12 5 12 H 2 Q 1 12 1 11 Z M 7 2 Q 7 1 8 1 H 11 Q 12 1 12 2 V 5 Q 12 6 11 6 H 8 Q 7 6 7 5 Z M 7 8 Q 7 7 8 7 H 11 Q 12 7 12 8 V 11 Q 12 12 11 12 H 8 Q 7 12 7 11 Z M 13 8 Q 13 7 14 7 H 17 Q 18 7 18 8 V 11 Q 18 12 17 12 H 14 Q 13 12 13 11 Z M 7 14 Q 7 13 8 13 H 11 Q 12 13 12 14 V 17 Q 12 18 11 18 H 8 Q 7 18 7 17 Z"/>
</svg>